<?xml version="1.0" standalone="no"?>
<!DOCTYPE svg PUBLIC "-//W3C//DTD SVG 20010904//EN"
 "http://www.w3.org/TR/2001/REC-SVG-20010904/DTD/svg10.dtd">
<svg version="1.0" xmlns="http://www.w3.org/2000/svg"
 width="1024.000000pt" height="1024.000000pt" viewBox="0 0 1024.000000 1024.000000"
 preserveAspectRatio="xMidYMid meet">

<g transform="translate(0.000000,1024.000000) scale(0.100000,-0.100000)"
fill="#000000" stroke="none">
<path d="M4725 6980 c-11 -5 -39 -9 -62 -9 -23 -1 -45 -5 -48 -11 -3 -5 -23
-10 -44 -10 -21 0 -54 -7 -72 -15 l-34 -14 43 -1 c24 0 42 -5 42 -11 0 -8 -20
-10 -65 -7 -77 7 -88 -7 -13 -15 29 -4 54 -11 56 -17 2 -5 10 -10 18 -10 9 0
13 -4 10 -9 -4 -5 -23 -5 -48 1 -23 5 -51 7 -62 5 -21 -3 -21 -4 -1 -11 38
-15 87 -41 92 -49 3 -5 -4 -21 -14 -36 -13 -17 -18 -33 -13 -46 4 -11 10 -37
13 -57 6 -40 -7 -50 -31 -26 -9 9 -15 9 -24 0 -9 -9 -8 -12 6 -12 10 0 29 -11
42 -25 22 -24 52 -35 39 -15 -3 6 3 10 15 10 12 0 18 5 15 10 -4 6 5 10 20 10
15 0 44 13 64 29 39 30 140 97 181 119 13 7 43 27 65 43 22 17 85 59 140 94
l99 63 -34 6 c-19 3 -62 10 -94 16 -71 12 -273 12 -301 0z"/>
<path d="M6885 6894 c-24 -6 -94 -40 -116 -57 -8 -7 -22 -27 -30 -44 -7 -18
-17 -33 -21 -33 -5 0 -8 -13 -8 -29 0 -17 -4 -33 -10 -36 -12 -8 -13 -49 -1
-73 4 -9 13 -32 19 -51 14 -43 7 -58 -69 -138 -33 -34 -59 -66 -59 -72 0 -6
-12 -16 -27 -22 -26 -10 -27 -12 -10 -23 21 -16 22 -36 1 -36 -8 0 -13 4 -10
9 3 5 -3 11 -13 14 -23 6 -18 -18 5 -27 20 -8 18 -43 -3 -55 -38 -21 26 -36
82 -20 19 6 67 48 128 114 l98 105 59 0 c59 0 79 5 155 42 40 19 48 27 87 97
27 46 29 152 6 202 -19 40 -70 90 -113 112 -33 16 -118 28 -150 21z m146 -141
c36 -34 40 -43 41 -89 1 -65 -15 -89 -79 -121 l-53 -25 -52 26 c-57 28 -78 58
-78 113 0 77 56 133 132 133 43 0 54 -5 89 -37z m-445 -510 c-10 -10 -19 5
-10 18 6 11 8 11 12 0 2 -7 1 -15 -2 -18z m31 -29 c-3 -3 -12 -4 -19 -1 -8 3
-5 6 6 6 11 1 17 -2 13 -5z"/>
<path d="M4365 6880 c-3 -5 1 -10 10 -10 9 0 13 5 10 10 -3 6 -8 10 -10 10 -2
0 -7 -4 -10 -10z"/>
<path d="M5625 6673 c-22 -14 -42 -29 -45 -33 -10 -12 -99 -70 -108 -70 -5 0
-15 -7 -23 -16 -7 -8 -37 -31 -67 -51 -29 -20 -56 -42 -59 -50 -3 -7 -12 -13
-20 -13 -27 0 -103 -60 -103 -80 0 -7 -7 -9 -16 -6 -13 5 -15 1 -10 -19 5 -21
0 -32 -26 -55 -40 -37 -19 -40 28 -4 19 15 37 24 41 20 3 -3 1 -6 -5 -6 -7 0
-12 -7 -12 -16 0 -9 5 -12 12 -7 12 7 60 16 151 30 23 3 43 1 50 -6 6 -6 30
-11 53 -11 24 0 46 -4 49 -10 3 -5 15 -10 26 -10 10 0 27 -4 37 -9 9 -5 36
-17 59 -27 24 -11 43 -22 43 -26 0 -5 4 -8 9 -8 5 0 39 -31 75 -69 103 -106
166 -247 166 -373 0 -88 -23 -176 -71 -269 -45 -87 -103 -149 -206 -218 -39
-26 -79 -55 -88 -64 -9 -9 -33 -24 -53 -34 -20 -10 -64 -39 -96 -65 -32 -26
-74 -54 -92 -63 -18 -8 -36 -20 -40 -26 -3 -6 -16 -14 -27 -18 -12 -5 -22 -17
-22 -27 0 -12 -8 -20 -23 -22 -13 -2 -26 -11 -30 -20 -3 -9 -14 -26 -24 -36
-18 -19 -23 -36 -13 -36 3 0 19 14 35 30 32 33 62 43 39 13 -8 -10 -17 -20
-21 -23 -8 -6 -20 -75 -18 -100 3 -32 2 -106 -1 -120 -3 -9 5 -16 21 -18 43
-6 43 -19 1 -26 -40 -6 -67 -26 -35 -26 19 0 79 18 106 31 10 5 25 9 33 9 8 0
15 5 15 10 0 6 9 10 20 10 11 0 35 9 53 19 45 25 66 36 102 52 17 8 32 16 35
19 20 20 91 70 99 70 6 0 11 5 11 10 0 6 3 10 8 10 12 0 155 142 176 175 11
17 32 46 47 65 105 131 136 186 155 273 23 113 35 151 52 170 14 16 17 46 19
190 4 251 4 259 -17 300 -11 20 -23 56 -26 80 -4 23 -11 50 -15 59 -5 9 -5 27
0 40 6 16 3 31 -10 53 -10 17 -24 41 -30 55 -5 14 -23 38 -39 53 -16 16 -30
37 -32 48 -4 28 -91 140 -183 236 l-80 83 -40 -27z m-365 -303 c0 -5 -2 -10
-4 -10 -3 0 -8 5 -11 10 -3 6 -1 10 4 10 6 0 11 -4 11 -10z m30 -14 c0 -3 -4
-8 -10 -11 -5 -3 -10 -1 -10 4 0 6 5 11 10 11 6 0 10 -2 10 -4z m-44 -53 c-4
-4 -14 1 -22 11 -22 31 -17 43 8 19 12 -13 18 -26 14 -30z"/>
<path d="M4441 6586 c2 -1 18 -8 36 -14 26 -9 31 -8 26 4 -3 8 -18 14 -36 14
-17 0 -28 -2 -26 -4z"/>
<path d="M4435 6540 c3 -5 8 -10 11 -10 2 0 4 5 4 10 0 6 -5 10 -11 10 -5 0
-7 -4 -4 -10z"/>
<path d="M7860 6463 c-91 -13 -95 -14 -155 -78 l-60 -63 -205 -4 c-167 -3
-211 -7 -239 -21 -19 -9 -40 -17 -46 -17 -7 0 -18 -7 -26 -16 -10 -13 -10 -17
2 -25 12 -7 11 -9 -2 -9 -9 0 -24 -9 -34 -20 -10 -11 -24 -20 -31 -20 -7 0
-16 -9 -19 -20 -3 -11 -10 -20 -15 -20 -5 0 -7 -7 -4 -15 4 -10 0 -15 -10 -15
-9 0 -20 -8 -23 -17 -4 -10 -15 -25 -25 -34 -19 -18 -25 -49 -8 -49 6 0 14 8
17 18 11 28 27 40 56 40 17 0 27 -6 27 -15 0 -11 -7 -13 -24 -9 -19 5 -25 1
-29 -17 -2 -12 -8 -30 -12 -39 -5 -13 -3 -18 9 -18 9 0 16 -4 16 -10 0 -5 -7
-10 -15 -10 -15 0 -20 -12 -9 -23 3 -3 18 5 32 18 14 13 29 22 34 19 4 -3 8 0
8 7 0 14 78 92 140 140 l44 34 190 -4 191 -3 64 -65 c36 -35 80 -71 99 -79 39
-16 138 -19 147 -4 3 6 14 10 24 10 26 0 131 98 131 122 0 12 5 38 12 60 12
40 0 116 -26 163 -39 72 -140 120 -226 108z m115 -138 c32 -32 35 -41 35 -92
0 -52 -3 -59 -39 -93 -50 -47 -90 -56 -141 -30 -55 28 -80 64 -80 117 0 88 46
132 137 133 47 0 56 -4 88 -35z m-870 -155 c-3 -5 -10 -10 -16 -10 -5 0 -9 5
-9 10 0 6 7 10 16 10 8 0 12 -4 9 -10z m-39 -26 c-3 -9 -6 -20 -6 -25 0 -5 -4
-9 -10 -9 -11 0 -14 33 -3 43 12 13 25 7 19 -9z m45 -44 c5 0 9 -4 9 -9 0 -4
-12 -6 -27 -3 -16 3 -22 7 -15 9 6 3 13 12 13 21 1 15 2 15 6 0 2 -10 9 -18
14 -18z m-16 -63 c-20 -31 -65 -53 -65 -32 0 8 6 15 13 15 8 0 22 9 33 19 27
27 38 26 19 -2z"/>
<path d="M3144 6348 c-5 -7 -3 -8 5 -4 18 11 49 -21 49 -49 0 -14 -4 -25 -9
-25 -14 0 -10 -22 8 -42 15 -17 15 -18 -5 -18 -11 0 -24 5 -27 10 -3 6 -11 10
-17 10 -7 0 -7 -4 1 -14 8 -10 68 -15 249 -20 131 -4 250 -4 264 -1 13 3 33
21 44 38 23 39 45 99 38 106 -3 3 -128 4 -279 3 -182 -2 -275 1 -280 8 -8 13
-32 13 -41 -2z"/>
<path d="M3115 6320 c-3 -5 -1 -10 4 -10 6 0 11 5 11 10 0 6 -2 10 -4 10 -3 0
-8 -4 -11 -10z"/>
<path d="M3151 6311 c-6 -11 -11 -22 -11 -25 0 -11 29 6 34 19 8 23 -12 28
-23 6z"/>
<path d="M5118 6323 c-10 -2 -18 -11 -18 -19 0 -20 14 -17 35 6 18 20 16 22
-17 13z"/>
<path d="M2526 6226 c3 -8 13 -17 22 -20 9 -3 24 -9 32 -12 8 -4 4 5 -9 20
-26 28 -54 35 -45 12z"/>
<path d="M2616 6182 c-7 -12 1 -53 14 -66 7 -7 10 -5 10 6 0 9 7 18 16 20 13
2 11 7 -9 26 -14 13 -27 19 -31 14z"/>
<path d="M2480 6166 c0 -9 5 -16 10 -16 6 0 10 4 10 9 0 6 -4 13 -10 16 -5 3
-10 -1 -10 -9z"/>
<path d="M2535 6170 c3 -5 8 -10 11 -10 2 0 4 5 4 10 0 6 -5 10 -11 10 -5 0
-7 -4 -4 -10z"/>
<path d="M2660 6115 c0 -8 7 -15 15 -15 17 0 20 -16 6 -25 -5 -3 -13 -1 -16 5
-5 8 -11 7 -21 -1 -12 -10 -18 -8 -29 7 -13 17 -14 18 -15 2 0 -10 5 -18 10
-18 6 0 10 -7 10 -15 0 -24 -13 -17 -40 19 -14 19 -28 32 -32 29 -14 -8 -8
-22 12 -28 11 -4 20 -15 20 -26 0 -30 30 -36 51 -11 22 28 24 28 39 -8 7 -16
16 -30 21 -30 5 0 9 -4 9 -10 0 -18 -22 -10 -27 10 -6 24 -33 27 -33 4 0 -8
-4 -12 -10 -9 -6 4 -7 -1 -3 -11 4 -11 8 -13 11 -6 6 19 22 14 22 -7 0 -14 5
-18 20 -14 22 6 28 -12 8 -20 -8 -3 -6 -8 7 -13 23 -9 45 -29 45 -41 0 -29 61
-33 469 -33 l416 0 1 23 c1 12 5 48 9 80 l8 57 -417 0 c-229 0 -416 4 -416 8
0 4 -13 15 -29 25 -16 9 -45 33 -64 52 -37 37 -57 44 -57 20z m100 -85 c0 -5
-4 -10 -10 -10 -5 0 -10 5 -10 10 0 6 5 10 10 10 6 0 10 -4 10 -10z m0 -100
c0 -5 -4 -10 -10 -10 -5 0 -10 5 -10 10 0 6 5 10 10 10 6 0 10 -4 10 -10z"/>
<path d="M6940 5992 c0 -4 10 -13 23 -21 22 -14 22 -14 3 8 -20 22 -26 25 -26
13z"/>
<path d="M6910 5950 c0 -5 5 -10 11 -10 5 0 7 5 4 10 -3 6 -8 10 -11 10 -2 0
-4 -4 -4 -10z"/>
<path d="M6925 5910 c3 -5 8 -10 11 -10 2 0 4 5 4 10 0 6 -5 10 -11 10 -5 0
-7 -4 -4 -10z"/>
<path d="M6900 5860 c0 -5 5 -10 10 -10 6 0 10 5 10 10 0 6 -4 10 -10 10 -5 0
-10 -4 -10 -10z"/>
<path d="M7175 5791 c-16 -10 -48 -41 -70 -69 -22 -28 -49 -54 -60 -58 -11 -4
-78 -8 -150 -9 -71 -1 -139 -4 -149 -7 -31 -7 -36 -39 -15 -77 11 -18 19 -34
17 -35 -2 -1 -19 -10 -38 -19 -34 -16 -30 -17 146 -17 l180 0 31 -32 c17 -18
36 -43 42 -56 7 -13 22 -27 34 -33 12 -6 38 -19 57 -29 67 -36 176 -17 239 41
32 30 71 95 71 119 0 11 5 29 12 39 12 20 0 80 -25 126 -6 11 -17 32 -25 48
-7 15 -17 27 -21 27 -4 0 -16 8 -27 18 -40 35 -64 42 -141 41 -55 0 -87 -6
-108 -18z m144 -87 c40 -8 70 -39 87 -92 13 -38 13 -45 -7 -87 -29 -61 -61
-85 -115 -85 -36 0 -51 6 -83 35 -92 83 -48 219 75 234 6 0 26 -2 43 -5z"/>
<path d="M5305 5740 c-38 -27 -73 -49 -78 -50 -9 0 -129 -83 -177 -122 -19
-15 -40 -28 -48 -28 -7 0 -23 -9 -35 -21 -32 -30 -104 -79 -116 -79 -6 0 -11
-4 -11 -10 0 -5 -6 -10 -12 -10 -7 0 -29 -14 -48 -30 -19 -16 -40 -30 -46 -30
-6 0 -21 -12 -35 -26 -25 -27 -92 -63 -118 -65 -11 0 -12 -2 -3 -6 20 -8 14
-26 -8 -20 -11 3 -22 2 -25 -3 -3 -4 5 -10 16 -13 27 -7 15 -27 -15 -27 -28 0
-59 -31 -38 -38 10 -3 9 -8 -4 -23 -17 -19 -9 -24 20 -13 9 3 16 14 16 24 0
20 23 32 44 24 7 -3 16 1 19 9 3 8 18 18 34 21 15 4 65 34 110 67 45 32 90 62
100 66 10 4 41 23 68 44 28 20 70 47 95 59 25 13 78 46 118 74 40 28 91 61
113 72 23 12 53 34 68 48 15 14 32 26 39 26 7 0 12 4 12 8 0 4 14 16 30 25 21
13 30 26 30 44 0 22 -23 52 -40 53 -3 0 -36 -22 -75 -50z m-635 -504 c0 -3 -4
-8 -10 -11 -5 -3 -10 -1 -10 4 0 6 5 11 10 11 6 0 10 -2 10 -4z"/>
<path d="M3061 5662 c-56 -2 -88 -8 -98 -17 -8 -8 -24 -15 -36 -16 -21 -1 -20
-1 4 -12 26 -12 28 -34 5 -50 -7 -4 -2 -9 12 -13 14 -4 21 -12 18 -20 -5 -12
51 -14 336 -14 l341 0 -7 61 c-12 99 12 91 -255 87 -130 -2 -274 -4 -320 -6z"/>
<path d="M3390 5315 c-56 -15 -71 -56 -16 -46 9 2 4 -42 -8 -71 -7 -15 0 -17
56 -17 34 0 125 -3 201 -6 75 -4 137 -5 137 -2 0 10 -53 132 -63 145 -12 16
-244 14 -307 -3z"/>
<path d="M6510 5300 c24 -8 24 -8 3 -9 -23 -1 -33 -34 -14 -45 5 -3 7 -24 4
-46 -6 -41 -3 -44 44 -43 6 0 9 -6 6 -13 -3 -8 1 -14 11 -14 8 0 32 -22 53
-50 20 -27 41 -50 45 -50 12 0 10 -88 -2 -95 -5 -3 -10 -32 -10 -65 0 -66 36
-148 76 -174 72 -48 96 -56 160 -56 95 0 171 42 200 109 9 20 20 44 25 53 16
31 10 117 -11 160 -11 23 -20 47 -20 52 0 6 -16 21 -36 34 -86 56 -103 62
-174 62 l-70 0 -67 71 c-38 40 -76 80 -85 90 -10 11 -31 19 -48 19 -16 0 -30
5 -30 10 0 6 -19 10 -42 9 -37 -1 -39 -2 -18 -9z m86 -74 c20 -21 17 -28 -6
-16 -11 6 -20 15 -20 20 0 14 9 12 26 -4z m-26 -36 c0 -5 -4 -10 -10 -10 -5 0
-10 5 -10 10 0 6 5 10 10 10 6 0 10 -4 10 -10z m363 -196 c55 -29 77 -65 77
-127 0 -92 -99 -153 -182 -114 -107 51 -105 187 4 240 42 21 61 21 101 1z"/>
<path d="M4475 5220 c-8 -13 25 -13 45 0 12 8 9 10 -12 10 -15 0 -30 -4 -33
-10z"/>
<path d="M4455 5110 c3 -5 10 -10 16 -10 5 0 9 5 9 10 0 6 -7 10 -16 10 -8 0
-12 -4 -9 -10z"/>
<path d="M4426 5091 c-3 -5 1 -11 9 -14 9 -4 12 -1 8 9 -6 16 -10 17 -17 5z"/>
<path d="M4369 5043 c-13 -17 -13 -17 6 -3 11 8 22 16 24 17 2 2 0 3 -6 3 -6
0 -17 -8 -24 -17z"/>
<path d="M5098 4563 c6 -2 18 -2 25 0 6 3 1 5 -13 5 -14 0 -19 -2 -12 -5z"/>
<path d="M1132 4233 c-46 -3 -70 -8 -66 -14 3 -6 -1 -18 -10 -28 -16 -18 -17
-45 -3 -68 4 -6 5 -17 2 -25 -2 -7 -6 -25 -9 -39 -4 -26 -3 -27 62 -33 116
-10 498 -19 526 -12 l27 7 -3 107 -3 107 -225 1 c-124 0 -258 -1 -298 -3z"/>
<path d="M2481 4230 c-76 -5 -105 -24 -57 -36 24 -6 25 -7 9 -30 -8 -13 -11
-24 -5 -24 7 0 9 -17 6 -44 -7 -73 -8 -73 268 -80 134 -3 254 -4 268 -3 25 4
25 5 28 116 l3 112 -223 -3 c-123 -1 -256 -5 -297 -8z"/>
<path d="M4098 4233 c-17 -4 -18 -28 -19 -301 -1 -163 -1 -319 0 -347 2 -32
-3 -57 -13 -70 -15 -19 -17 -18 -63 35 -27 30 -65 70 -85 89 -21 19 -38 39
-38 44 0 5 -29 37 -65 70 -36 33 -65 66 -65 72 0 15 -30 15 -31 1 -1 -6 -1
-18 0 -27 1 -9 -5 -22 -14 -29 -15 -12 -12 -53 7 -76 4 -6 6 -18 3 -26 -4 -9
1 -18 10 -22 10 -3 15 -13 12 -20 -3 -8 -1 -17 6 -20 8 -3 6 -8 -5 -16 -22
-13 -24 -40 -3 -40 8 0 15 7 15 15 0 8 5 15 10 15 13 0 13 -13 -1 -27 -6 -6
-8 -17 -4 -23 6 -9 10 -9 17 1 8 11 9 11 5 -1 -7 -23 22 -68 90 -139 34 -36
60 -68 58 -71 -3 -4 10 -21 28 -37 45 -42 82 -85 90 -106 6 -15 22 -17 137
-17 l130 0 0 539 0 539 -97 0 c-54 0 -106 -2 -115 -5z m-318 -573 c0 -5 -7
-10 -15 -10 -8 0 -15 5 -15 10 0 6 7 10 15 10 8 0 15 -4 15 -10z m0 -50 c0 -5
-2 -10 -4 -10 -3 0 -8 5 -11 10 -3 6 -1 10 4 10 6 0 11 -4 11 -10z"/>
<path d="M5135 4233 c-49 -2 -94 -9 -100 -15 -7 -8 -6 -9 3 -4 15 9 15 -5 1
-37 -9 -20 -8 -30 6 -50 10 -17 13 -27 6 -32 -6 -3 -11 -21 -11 -40 0 -19 -4
-37 -10 -40 -5 -3 -10 -15 -10 -26 0 -10 -4 -19 -10 -19 -5 0 -10 -9 -10 -21
0 -15 4 -19 16 -15 9 3 18 6 20 6 2 0 4 18 4 40 0 22 5 40 10 40 6 0 10 -11
10 -25 0 -14 5 -25 10 -25 18 0 11 -22 -9 -27 -11 -3 -22 -15 -25 -28 -3 -13
-13 -31 -22 -40 -9 -9 -14 -19 -10 -22 3 -4 12 -1 18 5 7 7 18 12 25 12 15 0
18 -27 3 -32 -14 -4 -15 -117 -1 -131 13 -13 16 -323 3 -331 -5 -3 -9 -37 -10
-76 -1 -40 3 -68 8 -65 5 3 14 -4 20 -15 9 -17 8 -20 -9 -20 -18 0 -35 -23
-24 -33 9 -10 33 5 26 17 -4 7 -1 6 9 -2 8 -7 33 -13 54 -15 l39 -2 3 415 c2
372 4 416 19 427 12 9 74 11 254 6 l237 -6 4 89 c2 49 1 101 -1 117 l-3 27
-227 -2 c-124 -1 -266 -4 -316 -5z m8 -277 c4 -10 1 -13 -9 -9 -7 3 -14 9 -14
14 0 14 17 10 23 -5z"/>
<path d="M6548 4233 c-76 -4 -77 -4 -87 -36 -5 -18 -9 -62 -8 -99 2 -81 -9
-76 182 -79 270 -3 277 -7 273 -168 l-3 -106 -200 -6 c-110 -4 -215 -7 -234
-8 -28 -1 -32 -3 -21 -16 7 -8 16 -12 21 -9 5 3 9 1 9 -5 0 -5 -5 -11 -11 -13
-13 -4 -22 -128 -9 -128 6 0 10 -7 10 -15 0 -8 -5 -15 -12 -15 -6 0 -8 -3 -4
-7 3 -4 107 -9 229 -12 l222 -6 3 -172 2 -173 115 0 115 0 0 415 c0 231 -4
423 -9 433 -5 9 -21 43 -36 74 -25 55 -55 85 -130 133 -26 16 -51 19 -185 21
-85 0 -190 -1 -232 -3z"/>
<path d="M8189 4232 c-9 -4 -29 -23 -45 -42 -16 -19 -34 -38 -40 -42 -6 -4
-44 -48 -84 -98 -40 -49 -77 -90 -82 -90 -5 0 -13 -10 -17 -22 -6 -17 -4 -28
8 -41 15 -18 14 -20 -7 -38 -27 -21 -23 -33 19 -54 16 -9 27 -20 24 -25 -11
-17 -33 -11 -40 11 -4 11 -12 18 -18 16 -18 -6 -31 -33 -23 -52 5 -14 9 -15
21 -5 13 10 15 8 15 -13 0 -14 3 -32 6 -41 4 -10 1 -16 -9 -16 -9 0 -17 10
-19 23 -4 27 -48 38 -48 12 0 -11 5 -15 14 -12 8 3 16 -2 19 -14 3 -10 2 -17
-3 -14 -4 3 -13 -2 -19 -9 -10 -12 -8 -13 10 -9 15 4 27 -1 40 -18 19 -25 26
-84 11 -93 -11 -7 -2 -66 12 -84 6 -7 56 -60 111 -117 55 -57 116 -122 136
-144 l37 -42 153 3 154 3 -165 165 c-91 91 -196 193 -233 228 -37 35 -67 68
-67 73 0 5 -4 9 -9 9 -13 0 -61 45 -61 57 0 6 25 34 55 62 30 29 55 56 55 60
0 5 35 42 78 82 88 84 305 314 310 329 4 11 -273 13 -299 2z m-219 -303 c-7
-11 -14 -18 -17 -15 -8 8 5 36 17 36 7 0 7 -6 0 -21z m10 -199 c0 -11 -7 -20
-15 -20 -18 0 -19 12 -3 28 16 16 18 15 18 -8z m-10 -230 c0 -5 -5 -10 -11
-10 -5 0 -7 5 -4 10 3 6 8 10 11 10 2 0 4 -4 4 -10z"/>
<path d="M9350 4230 c-52 -3 -89 -7 -81 -8 7 -1 11 -8 8 -16 -3 -8 -1 -17 6
-20 7 -2 3 -5 -8 -5 -12 -1 -16 -4 -9 -9 14 -9 26 -70 15 -76 -14 -9 0 -65 18
-70 9 -3 143 -8 299 -12 l282 -7 1 49 c1 27 3 69 5 94 2 25 2 55 -1 68 l-5 22
-218 -2 c-119 -1 -260 -5 -312 -8z"/>
<path d="M4955 3960 c-3 -6 1 -7 9 -4 18 7 21 14 7 14 -6 0 -13 -4 -16 -10z"/>
<path d="M4978 3903 c7 -3 16 -2 19 1 4 3 -2 6 -13 5 -11 0 -14 -3 -6 -6z"/>
<path d="M7890 3886 c0 -9 7 -16 16 -16 9 0 14 5 12 12 -6 18 -28 21 -28 4z"/>
<path d="M3680 3860 c0 -5 7 -10 15 -10 8 0 15 5 15 10 0 6 -7 10 -15 10 -8 0
-15 -4 -15 -10z"/>
<path d="M7850 3820 c0 -5 7 -10 15 -10 8 0 15 5 15 10 0 6 -7 10 -15 10 -8 0
-15 -4 -15 -10z"/>
<path d="M1170 3804 c-106 -4 -140 -10 -140 -23 0 -6 10 -11 23 -13 27 -4 25
-22 -3 -26 -18 -3 -19 -5 -7 -15 8 -7 19 -27 25 -45 10 -30 9 -34 -10 -41 -14
-5 -18 -10 -10 -15 7 -4 10 -11 7 -16 -6 -10 90 -19 215 -21 133 -2 184 -14
199 -45 15 -35 13 -115 -4 -138 -12 -16 -34 -20 -142 -27 -70 -4 -166 -8 -212
-9 -81 0 -84 -1 -67 -19 13 -14 14 -24 7 -43 -10 -27 -9 -53 2 -64 4 -4 7 -20
7 -36 0 -22 -5 -28 -22 -30 -61 -4 138 -16 289 -17 159 -1 174 1 215 22 69 35
124 102 155 187 14 40 17 202 4 228 -5 9 -15 30 -22 46 -24 49 -87 113 -136
136 -51 24 -163 31 -373 24z"/>
<path d="M2609 3806 c-2 -3 -46 -6 -96 -7 -97 -2 -131 -12 -101 -30 14 -8 17
-20 13 -70 -4 -43 -2 -58 7 -53 7 5 9 -1 6 -19 -5 -24 -2 -27 36 -32 23 -3
138 -6 256 -8 l215 -2 0 110 0 110 -166 3 c-91 1 -167 0 -170 -2z"/>
<path d="M9360 3800 c-58 -4 -112 -8 -120 -9 -8 -1 2 -9 23 -18 36 -15 48 -35
27 -48 -5 -3 -7 -12 -3 -20 4 -11 1 -13 -11 -9 -21 8 -20 -5 1 -28 16 -18 16
-19 -6 -25 l-22 -6 22 -20 c19 -18 41 -21 197 -28 214 -10 225 -15 230 -101 2
-42 -1 -60 -17 -79 -18 -22 -27 -24 -167 -31 -82 -3 -168 -7 -191 -7 -36 -1
-40 -3 -36 -21 3 -11 2 -28 -2 -37 -7 -16 -10 -68 -5 -75 8 -13 6 -41 -5 -52
-19 -19 61 -26 280 -26 198 0 203 1 284 84 41 42 59 69 73 113 32 103 18 244
-32 323 -34 52 -49 66 -110 99 -40 21 -59 24 -175 26 -71 1 -177 -1 -235 -5z"/>
<path d="M3670 3668 c0 -19 2 -20 10 -8 13 19 13 30 0 30 -5 0 -10 -10 -10
-22z"/>
<path d="M3690 3600 c0 -5 5 -10 10 -10 6 0 10 5 10 10 0 6 -4 10 -10 10 -5 0
-10 -4 -10 -10z"/>
<path d="M7850 3550 c0 -5 5 -10 11 -10 5 0 7 5 4 10 -3 6 -8 10 -11 10 -2 0
-4 -4 -4 -10z"/>
<path d="M7887 3524 c-8 -8 1 -24 14 -24 5 0 9 7 9 15 0 15 -12 20 -23 9z"/>
<path d="M2481 3370 c-71 -4 -82 -7 -69 -18 16 -13 18 -28 6 -47 -3 -5 -4 -21
-3 -35 2 -14 4 -35 4 -48 1 -13 5 -20 11 -17 6 4 7 12 4 18 -5 9 -4 9 5 1 18
-17 2 -44 -28 -45 -90 -6 134 -17 342 -18 l247 -1 0 110 0 111 -217 -3 c-120
-1 -256 -5 -302 -8z"/>
<path d="M4990 3180 c-13 -8 -12 -10 3 -10 9 0 17 5 17 10 0 12 -1 12 -20 0z"/>
</g>
</svg>
